<svg preserveAspectRatio="none" overflow="visible" style="display: block;" width="28" height="28" viewBox="0 0 28 28" fill="none" xmlns="http://www.w3.org/2000/svg">
<g id="icon">
<path id="Vector" d="M7 13C7 8 10 4 14 4C18 4 21 8 21 13" stroke="#442748" stroke-width="2" stroke-linecap="round"/>
<path id="Vector_2" d="M7 13C7 17 10 20 14 20C18 20 21 17 21 13" stroke="#442748" stroke-width="2" stroke-linecap="round"/>
<path id="Vector_3" d="M12 6C12 4.5 16 4.5 16 6" stroke="#442748" stroke-width="2.5" stroke-linecap="round"/>
<path id="Vector_4" d="M11 17C11.5523 17 12 16.5523 12 16C12 15.4477 11.5523 15 11 15C10.4477 15 10 15.4477 10 16C10 16.5523 10.4477 17 11 17Z" fill="#442748"/>
<path id="Vector_5" d="M17 17C17.5523 17 18 16.5523 18 16C18 15.4477 17.5523 15 17 15C16.4477 15 16 15.4477 16 16C16 16.5523 16.4477 17 17 17Z" fill="#442748"/>
<path id="Vector_6" d="M12 19C12.5 19.5 13 19.7 14 19.7C15 19.7 15.5 19.5 16 19" stroke="#442748" stroke-width="1.5" stroke-linecap="round"/>
<path id="Vector_7" d="M7 13H5M21 13H23" stroke="#442748" stroke-width="2" stroke-linecap="round"/>
</g>
</svg>
